# xmcd CD database file
#
# Track frame offsets:
#	150
#	18471
#	40258
#	54672
#	65772
#	96469
#	120497
#	138681
#	156006
#	179664
#	197390
#
# Disc length: 2734 seconds
#
# Revision: 2
# Processed by: cddbd v1.5.2PL0 Copyright (c) Steve Scherf et al.
# Submitted via: CDex 1.70beta2
#
DISCID=9f0aac0b
DTITLE=Michael Ripoll - Discovery Anew
DYEAR=2007
DGENRE=Jazz
TTITLE0=Give Thanks
TTITLE1=Biggest Part of Me
TTITLE2=Reason for Livin
TTITLE3=Lullaby
TTITLE4=Cat Dog
TTITLE5=Ooh Aah
TTITLE6=Its too Late
TTITLE7=Play my Guitar
TTITLE8=McGill Brazil
TTITLE9=So Much Love
TTITLE10=City of Hope
EXTD=YEAR: 2007
EXTT0=
EXTT1=
EXTT2=
EXTT3=
EXTT4=
EXTT5=
EXTT6=
EXTT7=
EXTT8=
EXTT9=
EXTT10=
PLAYORDER=
